<svg width="15" height="15" viewBox="0 0 15 15" fill="none" xmlns="http://www.w3.org/2000/svg">
<mask id="path-1-outside-1_165_406" maskUnits="userSpaceOnUse" x="-1" y="-1" width="16" height="17" fill="black">
<rect fill="white" x="-1" y="-1" width="16" height="17"/>
<path d="M14.1084 6.58398C14.1084 7.14062 14.0439 7.68555 13.915 8.21875C13.792 8.74609 13.6016 9.22363 13.3438 9.65137C13.0859 10.0732 12.7637 10.4102 12.377 10.6621C11.9961 10.9141 11.5449 11.04 11.0234 11.04C10.4785 11.04 10.0449 10.8818 9.72266 10.5654C9.40039 10.249 9.20703 9.87402 9.14258 9.44043H9.06348C8.84082 9.90332 8.5127 10.2871 8.0791 10.5918C7.65137 10.8906 7.12402 11.04 6.49707 11.04C5.58301 11.04 4.87695 10.7383 4.37891 10.1348C3.88672 9.52539 3.64062 8.7168 3.64062 7.70898C3.64062 6.92383 3.7959 6.22949 4.10645 5.62598C4.42285 5.0166 4.86523 4.53906 5.43359 4.19336C6.00781 3.8418 6.68457 3.66602 7.46387 3.66602C7.98535 3.66602 8.49219 3.70996 8.98438 3.79785C9.47656 3.88574 9.86914 3.98242 10.1621 4.08789L9.98633 7.62988C9.98047 7.84668 9.97461 8.01367 9.96875 8.13086C9.96289 8.24219 9.95996 8.33008 9.95996 8.39453C9.95996 9.02734 10.0713 9.45508 10.2939 9.67773C10.5225 9.89453 10.7979 10.0029 11.1201 10.0029C11.5127 10.0029 11.8408 9.85059 12.1045 9.5459C12.374 9.23535 12.5791 8.82227 12.7197 8.30664C12.8604 7.78516 12.9307 7.20801 12.9307 6.5752C12.9307 5.45605 12.7051 4.50098 12.2539 3.70996C11.8027 2.91895 11.1787 2.31543 10.3818 1.89941C9.59082 1.4834 8.67969 1.27539 7.64844 1.27539C6.62305 1.27539 5.71191 1.43652 4.91504 1.75879C4.12402 2.08105 3.45312 2.53809 2.90234 3.12988C2.35742 3.71582 1.94434 4.41309 1.66309 5.22168C1.38184 6.03027 1.24121 6.92383 1.24121 7.90234C1.24121 9.09766 1.45215 10.1143 1.87402 10.9521C2.30176 11.79 2.92578 12.4287 3.74609 12.8682C4.57227 13.3018 5.57715 13.5186 6.76074 13.5186C7.47559 13.5186 8.16406 13.4395 8.82617 13.2812C9.48828 13.123 10.0801 12.9443 10.6016 12.7451V13.8877C10.0859 14.1045 9.50879 14.2803 8.87012 14.415C8.23145 14.5557 7.52832 14.626 6.76074 14.626C5.34863 14.626 4.1416 14.3594 3.13965 13.8262C2.1377 13.2988 1.37012 12.5371 0.836914 11.541C0.303711 10.5449 0.0371094 9.34961 0.0371094 7.95508C0.0371094 6.82422 0.209961 5.78418 0.555664 4.83496C0.907227 3.88574 1.41113 3.0625 2.06738 2.36523C2.72949 1.66797 3.5293 1.12891 4.4668 0.748047C5.41016 0.361328 6.4707 0.167969 7.64844 0.167969C8.9082 0.167969 10.0215 0.428711 10.9883 0.950195C11.9609 1.46582 12.7227 2.2041 13.2734 3.16504C13.8301 4.12012 14.1084 5.25977 14.1084 6.58398ZM4.9502 7.74414C4.9502 8.52344 5.10547 9.09473 5.41602 9.45801C5.72656 9.82129 6.15723 10.0029 6.70801 10.0029C7.3877 10.0029 7.88574 9.74805 8.20215 9.23828C8.52441 8.72852 8.70898 8.05469 8.75586 7.2168L8.86133 4.92285C8.69141 4.87012 8.4834 4.82617 8.2373 4.79102C7.99707 4.75 7.74512 4.72949 7.48145 4.72949C6.87793 4.72949 6.38867 4.87305 6.01367 5.16016C5.64453 5.44727 5.375 5.81934 5.20508 6.27637C5.03516 6.7334 4.9502 7.22266 4.9502 7.74414Z"/>
</mask>
<path d="M14.1084 6.58398C14.1084 7.14062 14.0439 7.68555 13.915 8.21875C13.792 8.74609 13.6016 9.22363 13.3438 9.65137C13.0859 10.0732 12.7637 10.4102 12.377 10.6621C11.9961 10.9141 11.5449 11.04 11.0234 11.04C10.4785 11.04 10.0449 10.8818 9.72266 10.5654C9.40039 10.249 9.20703 9.87402 9.14258 9.44043H9.06348C8.84082 9.90332 8.5127 10.2871 8.0791 10.5918C7.65137 10.8906 7.12402 11.04 6.49707 11.04C5.58301 11.04 4.87695 10.7383 4.37891 10.1348C3.88672 9.52539 3.64062 8.7168 3.64062 7.70898C3.64062 6.92383 3.7959 6.22949 4.10645 5.62598C4.42285 5.0166 4.86523 4.53906 5.43359 4.19336C6.00781 3.8418 6.68457 3.66602 7.46387 3.66602C7.98535 3.66602 8.49219 3.70996 8.98438 3.79785C9.47656 3.88574 9.86914 3.98242 10.1621 4.08789L9.98633 7.62988C9.98047 7.84668 9.97461 8.01367 9.96875 8.13086C9.96289 8.24219 9.95996 8.33008 9.95996 8.39453C9.95996 9.02734 10.0713 9.45508 10.2939 9.67773C10.5225 9.89453 10.7979 10.0029 11.1201 10.0029C11.5127 10.0029 11.8408 9.85059 12.1045 9.5459C12.374 9.23535 12.5791 8.82227 12.7197 8.30664C12.8604 7.78516 12.9307 7.20801 12.9307 6.5752C12.9307 5.45605 12.7051 4.50098 12.2539 3.70996C11.8027 2.91895 11.1787 2.31543 10.3818 1.89941C9.59082 1.4834 8.67969 1.27539 7.64844 1.27539C6.62305 1.27539 5.71191 1.43652 4.91504 1.75879C4.12402 2.08105 3.45312 2.53809 2.90234 3.12988C2.35742 3.71582 1.94434 4.41309 1.66309 5.22168C1.38184 6.03027 1.24121 6.92383 1.24121 7.90234C1.24121 9.09766 1.45215 10.1143 1.87402 10.9521C2.30176 11.79 2.92578 12.4287 3.74609 12.8682C4.57227 13.3018 5.57715 13.5186 6.76074 13.5186C7.47559 13.5186 8.16406 13.4395 8.82617 13.2812C9.48828 13.123 10.0801 12.9443 10.6016 12.7451V13.8877C10.0859 14.1045 9.50879 14.2803 8.87012 14.415C8.23145 14.5557 7.52832 14.626 6.76074 14.626C5.34863 14.626 4.1416 14.3594 3.13965 13.8262C2.1377 13.2988 1.37012 12.5371 0.836914 11.541C0.303711 10.5449 0.0371094 9.34961 0.0371094 7.95508C0.0371094 6.82422 0.209961 5.78418 0.555664 4.83496C0.907227 3.88574 1.41113 3.0625 2.06738 2.36523C2.72949 1.66797 3.5293 1.12891 4.4668 0.748047C5.41016 0.361328 6.4707 0.167969 7.64844 0.167969C8.9082 0.167969 10.0215 0.428711 10.9883 0.950195C11.9609 1.46582 12.7227 2.2041 13.2734 3.16504C13.8301 4.12012 14.1084 5.25977 14.1084 6.58398ZM4.9502 7.74414C4.9502 8.52344 5.10547 9.09473 5.41602 9.45801C5.72656 9.82129 6.15723 10.0029 6.70801 10.0029C7.3877 10.0029 7.88574 9.74805 8.20215 9.23828C8.52441 8.72852 8.70898 8.05469 8.75586 7.2168L8.86133 4.92285C8.69141 4.87012 8.4834 4.82617 8.2373 4.79102C7.99707 4.75 7.74512 4.72949 7.48145 4.72949C6.87793 4.72949 6.38867 4.87305 6.01367 5.16016C5.64453 5.44727 5.375 5.81934 5.20508 6.27637C5.03516 6.7334 4.9502 7.22266 4.9502 7.74414Z" fill="#161618"/>
<path d="M13.915 8.21875L13.429 8.10125L13.4281 8.10513L13.915 8.21875ZM13.3438 9.65137L13.7704 9.9121L13.772 9.90948L13.3438 9.65137ZM12.377 10.6621L12.104 10.2432L12.1011 10.2451L12.377 10.6621ZM9.14258 9.44043L9.63714 9.36691L9.57375 8.94043H9.14258V9.44043ZM9.06348 9.44043V8.94043H8.74915L8.61289 9.22369L9.06348 9.44043ZM8.0791 10.5918L8.36546 11.0017L8.36657 11.0009L8.0791 10.5918ZM4.37891 10.1348L3.98991 10.449L3.99327 10.453L4.37891 10.1348ZM4.10645 5.62598L3.66269 5.39557L3.66185 5.3972L4.10645 5.62598ZM5.43359 4.19336L5.69343 4.62055L5.69467 4.61978L5.43359 4.19336ZM10.1621 4.08789L10.6615 4.11267L10.6798 3.74286L10.3315 3.61745L10.1621 4.08789ZM9.98633 7.62988L9.48682 7.60509L9.48651 7.61637L9.98633 7.62988ZM9.96875 8.13086L10.4681 8.15714L10.4681 8.15583L9.96875 8.13086ZM10.2939 9.67773L9.94027 10.0314L9.94981 10.0405L10.2939 9.67773ZM12.1045 9.5459L11.7269 9.21816L11.7264 9.21871L12.1045 9.5459ZM12.7197 8.30664L13.2021 8.4382L13.2025 8.43682L12.7197 8.30664ZM10.3818 1.89941L10.1491 2.34195L10.1504 2.34265L10.3818 1.89941ZM4.91504 1.75879L4.72758 1.29526L4.72639 1.29574L4.91504 1.75879ZM2.90234 3.12988L2.53633 2.78924L2.53621 2.78938L2.90234 3.12988ZM1.87402 10.9521L1.42743 11.177L1.42869 11.1795L1.87402 10.9521ZM3.74609 12.8682L3.50997 13.3089L3.51374 13.3109L3.74609 12.8682ZM10.6016 12.7451H11.1016V12.0189L10.4231 12.278L10.6016 12.7451ZM10.6016 13.8877L10.7954 14.3486L11.1016 14.2199V13.8877H10.6016ZM8.87012 14.415L8.76688 13.9258L8.7626 13.9267L8.87012 14.415ZM3.13965 13.8262L3.37454 13.3848L3.37252 13.3837L3.13965 13.8262ZM0.555664 4.83496L0.0867827 4.6613L0.085852 4.66386L0.555664 4.83496ZM2.06738 2.36523L1.7048 2.02094L1.70328 2.02255L2.06738 2.36523ZM4.4668 0.748047L4.65499 1.21128L4.65645 1.21068L4.4668 0.748047ZM10.9883 0.950195L10.7509 1.39027L10.7541 1.39196L10.9883 0.950195ZM13.2734 3.16504L12.8396 3.41368L12.8415 3.41681L13.2734 3.16504ZM8.20215 9.23828L7.7795 8.97109L7.77733 8.9746L8.20215 9.23828ZM8.75586 7.2168L9.2551 7.24473L9.25533 7.23976L8.75586 7.2168ZM8.86133 4.92285L9.3608 4.94582L9.37855 4.55984L9.00953 4.44532L8.86133 4.92285ZM8.2373 4.79102L8.15313 5.28407L8.16659 5.28599L8.2373 4.79102ZM6.01367 5.16016L5.70971 4.76314L5.7067 4.76548L6.01367 5.16016ZM13.6084 6.58398C13.6084 7.10163 13.5485 7.60709 13.429 8.10126L14.401 8.33624C14.5394 7.764 14.6084 7.17962 14.6084 6.58398H13.6084ZM13.4281 8.10513C13.316 8.58582 13.1442 9.01394 12.9155 9.39326L13.772 9.90948C14.059 9.43333 14.268 8.90637 14.402 8.33237L13.4281 8.10513ZM12.9171 9.39064C12.6953 9.75361 12.424 10.0347 12.104 10.2432L12.6499 11.081C13.1034 10.7856 13.4766 10.3929 13.7704 9.91209L12.9171 9.39064ZM12.1011 10.2451C11.8132 10.4355 11.4612 10.54 11.0234 10.54V11.54C11.6287 11.54 12.1789 11.3926 12.6528 11.0791L12.1011 10.2451ZM11.0234 10.54C10.5807 10.54 10.283 10.4149 10.073 10.2086L9.37236 10.9222C9.80685 11.3488 10.3763 11.54 11.0234 11.54V10.54ZM10.073 10.2086C9.82578 9.96597 9.68509 9.68945 9.63714 9.36691L8.64801 9.51395C8.72897 10.0586 8.975 10.5321 9.37236 10.9222L10.073 10.2086ZM9.14258 8.94043H9.06348V9.94043H9.14258V8.94043ZM8.61289 9.22369C8.42848 9.60707 8.15762 9.92552 7.79163 10.1827L8.36657 11.0009C8.86777 10.6487 9.25316 10.1996 9.51406 9.65717L8.61289 9.22369ZM7.79275 10.1819C7.46473 10.4111 7.04265 10.54 6.49707 10.54V11.54C7.2054 11.54 7.83801 11.3702 8.36546 11.0017L7.79275 10.1819ZM6.49707 10.54C5.70427 10.54 5.15114 10.285 4.76455 9.81652L3.99327 10.453C4.60277 11.1916 5.46174 11.54 6.49707 11.54V10.54ZM4.76788 9.8206C4.36596 9.32299 4.14062 8.63571 4.14062 7.70898H3.14062C3.14062 8.79788 3.40748 9.72779 3.98994 10.4489L4.76788 9.8206ZM4.14062 7.70898C4.14062 6.99089 4.28223 6.37715 4.55104 5.85475L3.66185 5.3972C3.30957 6.08183 3.14062 6.85676 3.14062 7.70898H4.14062ZM4.55019 5.85638C4.82587 5.32545 5.20581 4.91713 5.69343 4.62054L5.17376 3.76618C4.52465 4.16099 4.01983 4.70775 3.6627 5.39557L4.55019 5.85638ZM5.69467 4.61978C6.1786 4.3235 6.76195 4.16602 7.46387 4.16602V3.16602C6.60719 3.16602 5.83702 3.36009 5.17252 3.76693L5.69467 4.61978ZM7.46387 4.16602C7.95714 4.16602 8.43452 4.20757 8.89648 4.29007L9.07227 3.30564C8.54986 3.21235 8.01356 3.16602 7.46387 3.16602V4.16602ZM8.89648 4.29007C9.37541 4.37559 9.73722 4.46634 9.99275 4.55833L10.3315 3.61745C10.0011 3.4985 9.57772 3.3959 9.07227 3.30564L8.89648 4.29007ZM9.66272 4.06311L9.48694 7.6051L10.4857 7.65467L10.6615 4.11267L9.66272 4.06311ZM9.48651 7.61637C9.48068 7.83197 9.47495 7.99446 9.46937 8.10589L10.4681 8.15583C10.4743 8.03289 10.4803 7.86139 10.4861 7.64339L9.48651 7.61637ZM9.46944 8.10458C9.4634 8.21935 9.45996 8.31725 9.45996 8.39453H10.46C10.46 8.3429 10.4624 8.26502 10.4681 8.15714L9.46944 8.10458ZM9.45996 8.39453C9.45996 9.04405 9.56546 9.65636 9.94039 10.0313L10.6475 9.32418C10.5771 9.2538 10.46 9.01063 10.46 8.39453H9.45996ZM9.94981 10.0405C10.2736 10.3476 10.6731 10.5029 11.1201 10.5029V9.50293C10.9226 9.50293 10.7713 9.44143 10.6381 9.315L9.94981 10.0405ZM11.1201 10.5029C11.6622 10.5029 12.1268 10.2842 12.4826 9.87309L11.7264 9.21871C11.5548 9.41697 11.3632 9.50293 11.1201 9.50293V10.5029ZM12.4821 9.87364C12.8133 9.49204 13.0474 9.00537 13.2021 8.4382L12.2373 8.17508C12.1108 8.63916 11.9348 8.97866 11.7269 9.21816L12.4821 9.87364ZM13.2025 8.43682C13.3563 7.86636 13.4307 7.24465 13.4307 6.5752H12.4307C12.4307 7.17136 12.3644 7.70395 12.237 8.17646L13.2025 8.43682ZM13.4307 6.5752C13.4307 5.38892 13.1913 4.34419 12.6882 3.46224L11.8196 3.95768C12.2189 4.65776 12.4307 5.52319 12.4307 6.5752H13.4307ZM12.6882 3.46224C12.1902 2.5891 11.4963 1.91717 10.6132 1.45618L10.1504 2.34265C10.8612 2.71369 11.4153 3.2488 11.8196 3.95768L12.6882 3.46224ZM10.6146 1.45688C9.74145 0.997686 8.74824 0.775391 7.64844 0.775391V1.77539C8.61114 1.77539 9.44019 1.96911 10.1491 2.34194L10.6146 1.45688ZM7.64844 0.775391C6.57093 0.775391 5.59432 0.94474 4.72758 1.29526L5.1025 2.22232C5.82951 1.92831 6.67516 1.77539 7.64844 1.77539V0.775391ZM4.72639 1.29574C3.87195 1.64385 3.13942 2.14125 2.53633 2.78924L3.26835 3.47053C3.76683 2.93493 4.3761 2.51826 5.10369 2.22184L4.72639 1.29574ZM2.53621 2.78938C1.94084 3.42955 1.49324 4.188 1.19084 5.05742L2.13533 5.38594C2.39543 4.63817 2.774 4.00209 3.26848 3.47039L2.53621 2.78938ZM1.19084 5.05742C0.888797 5.92579 0.741211 6.87578 0.741211 7.90234H1.74121C1.74121 6.97187 1.87488 6.13476 2.13533 5.38594L1.19084 5.05742ZM0.741211 7.90234C0.741211 9.15495 0.962152 10.2529 1.42744 11.177L2.32061 10.7273C1.94215 9.97562 1.74121 9.04036 1.74121 7.90234H0.741211ZM1.42869 11.1795C1.90224 12.1071 2.59876 12.8208 3.50998 13.3089L3.9822 12.4274C3.2528 12.0367 2.70128 11.473 2.31935 10.7248L1.42869 11.1795ZM3.51374 13.3109C4.42827 13.7909 5.51741 14.0186 6.76074 14.0186V13.0186C5.63689 13.0186 4.71627 12.8127 3.97845 12.4254L3.51374 13.3109ZM6.76074 14.0186C7.51276 14.0186 8.24034 13.9353 8.94237 13.7676L8.70997 12.7949C8.08778 12.9436 7.43841 13.0186 6.76074 13.0186V14.0186ZM8.94237 13.7676C9.62122 13.6054 10.2344 13.4206 10.78 13.2122L10.4231 12.278C9.92578 12.468 9.35534 12.6407 8.70997 12.7949L8.94237 13.7676ZM10.1016 12.7451V13.8877H11.1016V12.7451H10.1016ZM10.4078 13.4268C9.92572 13.6295 9.37954 13.7965 8.76689 13.9258L8.97335 14.9043C9.63804 14.764 10.2462 14.5795 10.7954 14.3486L10.4078 13.4268ZM8.7626 13.9267C8.16471 14.0584 7.49823 14.126 6.76074 14.126V15.126C7.55841 15.126 8.29819 15.0529 8.97763 14.9033L8.7626 13.9267ZM6.76074 14.126C5.41089 14.126 4.28861 13.8712 3.37454 13.3848L2.90476 14.2676C3.99459 14.8475 5.28638 15.126 6.76074 15.126V14.126ZM3.37252 13.3837C2.45875 12.9028 1.76369 12.2129 1.27773 11.305L0.396097 11.777C0.976543 12.8613 1.81664 13.6949 2.90678 14.2686L3.37252 13.3837ZM1.27773 11.305C0.791462 10.3966 0.537109 9.2863 0.537109 7.95508H-0.462891C-0.462891 9.41292 -0.184041 10.6932 0.396097 11.777L1.27773 11.305ZM0.537109 7.95508C0.537109 6.87566 0.701982 5.8943 1.02548 5.00607L0.085852 4.66386C-0.28206 5.67406 -0.462891 6.77278 -0.462891 7.95508H0.537109ZM1.02454 5.00862C1.3542 4.11854 1.82371 3.35367 2.43148 2.70792L1.70328 2.02255C0.998552 2.77133 0.460257 3.65294 0.0867897 4.6613L1.02454 5.00862ZM2.42996 2.70953C3.04051 2.06656 3.77989 1.56679 4.65499 1.21128L4.27861 0.284814C3.2787 0.691025 2.41847 1.26938 1.70481 2.02094L2.42996 2.70953ZM4.65645 1.21068C5.53103 0.85216 6.52577 0.667969 7.64844 0.667969V-0.332031C6.41564 -0.332031 5.28928 -0.129504 4.27714 0.285411L4.65645 1.21068ZM7.64844 0.667969C8.83762 0.667969 9.86714 0.913559 10.7509 1.39026L11.2256 0.510131C10.1758 -0.0561368 8.97879 -0.332031 7.64844 -0.332031V0.667969ZM10.7541 1.39196C11.6428 1.86307 12.3355 2.53414 12.8396 3.41368L13.7072 2.9164C13.1098 1.87406 12.2791 1.06857 11.2225 0.508431L10.7541 1.39196ZM12.8415 3.41681C13.3455 4.2816 13.6084 5.33068 13.6084 6.58398H14.6084C14.6084 5.18885 14.3147 3.95863 13.7054 2.91327L12.8415 3.41681ZM4.4502 7.74414C4.4502 8.57243 4.61217 9.28715 5.03595 9.7829L5.79608 9.13312C5.59877 8.90231 5.4502 8.47445 5.4502 7.74414H4.4502ZM5.03595 9.7829C5.4565 10.2749 6.03582 10.5029 6.70801 10.5029V9.50293C6.27863 9.50293 5.99662 9.36772 5.79608 9.13312L5.03595 9.7829ZM6.70801 10.5029C7.5334 10.5029 8.20586 10.1804 8.62697 9.50196L7.77733 8.9746C7.56563 9.31568 7.24199 9.50293 6.70801 9.50293V10.5029ZM8.62478 9.50546C9.00686 8.90107 9.20522 8.13601 9.25508 7.24473L8.25664 7.18887C8.21275 7.97337 8.04197 8.55596 7.77952 8.9711L8.62478 9.50546ZM9.25533 7.23976L9.3608 4.94582L8.36186 4.89989L8.25639 7.19383L9.25533 7.23976ZM9.00953 4.44532C8.80655 4.38233 8.5709 4.3336 8.30802 4.29604L8.16659 5.28599C8.3959 5.31875 8.57627 5.35791 8.71313 5.40038L9.00953 4.44532ZM8.32145 4.29815C8.05126 4.25202 7.77104 4.22949 7.48145 4.22949V5.22949C7.71919 5.22949 7.94288 5.24798 8.15316 5.28388L8.32145 4.29815ZM7.48145 4.22949C6.79889 4.22949 6.19364 4.39265 5.70972 4.76315L6.31763 5.55716C6.5837 5.35344 6.95697 5.22949 7.48145 5.22949V4.22949ZM5.7067 4.76548C5.26102 5.11212 4.93727 5.56192 4.73642 6.10212L5.67373 6.45061C5.81273 6.07676 6.02804 5.78241 6.32064 5.55483L5.7067 4.76548ZM4.73642 6.10212C4.54437 6.61868 4.4502 7.16733 4.4502 7.74414H5.4502C5.4502 7.27798 5.52594 6.84812 5.67373 6.45061L4.73642 6.10212Z" fill="#161618" mask="url(#path-1-outside-1_165_406)"/>
</svg>
