<svg width="13" height="15" viewBox="0 0 13 15" fill="none" xmlns="http://www.w3.org/2000/svg">
<path d="M6.09375 7.42386C6.46191 7.42386 6.77612 7.29378 7.03638 7.03363C7.29663 6.77348 7.42676 6.45939 7.42676 6.09137C7.42676 5.72335 7.29663 5.40926 7.03638 5.14911C6.77612 4.88896 6.46191 4.75888 6.09375 4.75888C5.72559 4.75888 5.41138 4.88896 5.15112 5.14911C4.89087 5.40926 4.76074 5.72335 4.76074 6.09137C4.76074 6.45939 4.89087 6.77348 5.15112 7.03363C5.41138 7.29378 5.72559 7.42386 6.09375 7.42386ZM6.11279 15C6.02393 15 5.94141 14.9873 5.86523 14.9619C5.78906 14.9365 5.71924 14.8985 5.65576 14.8477C3.76416 13.1853 2.34863 11.6434 1.40918 10.2221C0.469726 8.80076 0 7.47462 0 6.24365C0 4.3401 0.612549 2.8236 1.83765 1.69416C3.06274 0.564721 4.48145 0 6.09375 0C7.70605 0 9.12475 0.564721 10.3499 1.69416C11.575 2.8236 12.1875 4.3401 12.1875 6.24365C12.1875 7.47462 11.7178 8.80076 10.7783 10.2221C9.83887 11.6434 8.42334 13.1853 6.53174 14.8477C6.46826 14.8985 6.40161 14.9365 6.33179 14.9619C6.26196 14.9873 6.18896 15 6.11279 15Z" fill="#161618"/>
</svg>
