<svg width="16" height="15" viewBox="0 0 16 15" fill="none" xmlns="http://www.w3.org/2000/svg">
<path d="M4.25117 4.76075C4.12625 4.88586 3.95137 5.2904 4.25117 5.90763C4.62592 6.67916 8.45667 10.5994 9.33108 10.9122C10.0306 11.1624 10.4137 10.7662 10.5178 10.5368C10.9411 9.84177 12.2041 8.86866 13.8697 10.5368C15.5352 12.205 15.1744 13.3172 14.7857 13.6647C14.3694 14.1095 13.3367 14.9992 12.5373 14.9992C11.5379 14.9992 8.87306 15.1661 4.25117 10.5368C-0.370716 5.90763 -0.245802 3.09256 0.212223 1.86227C0.670248 0.631983 2.00269 -1.18217 4.25117 1.06988C6.49965 3.32193 4.81329 4.36455 4.25117 4.76075Z" fill="#161618"/>
</svg>
