<svg width="20" height="21" viewBox="0 0 20 21" fill="none" xmlns="http://www.w3.org/2000/svg">
<g clip-path="url(#clip0_253_54)">
<path d="M3.21507 20.5029C4.66426 20.5029 5.83906 19.3156 5.83906 17.8509C5.83906 16.3863 4.66426 15.1989 3.21507 15.1989C1.76587 15.1989 0.591064 16.3863 0.591064 17.8509C0.591064 19.3156 1.76587 20.5029 3.21507 20.5029Z" fill="#B58763"/>
<path d="M13.271 20.5029H9.55404C9.55404 15.4989 5.54104 11.4419 0.592041 11.4419V7.68494C7.59404 7.68494 13.271 13.4229 13.271 20.5029Z" fill="#B58763"/>
<path d="M15.893 20.5029C15.893 11.9589 9.04204 5.03393 0.592041 5.03393V1.16693C11.156 1.16693 19.719 9.82393 19.719 20.5029H15.893Z" fill="#B58763"/>
</g>
<defs>
<clipPath id="clip0_253_54">
<rect width="20" height="20" fill="white" transform="translate(0 0.50293)"/>
</clipPath>
</defs>
</svg>
