<svg width="24" height="25" viewBox="0 0 24 25" fill="none" xmlns="http://www.w3.org/2000/svg">
<g clip-path="url(#clip0_253_59)">
<path d="M11.5075 24.4972H12.5069C17.9318 24.4972 20.6448 24.4972 22.3296 22.8124C24.0144 21.1276 24 18.4156 24 13.0041V11.9903C24 6.57977 24 3.8668 22.3296 2.182C20.6592 0.497197 17.9318 0.497192 12.5069 0.497192H11.5075C6.0816 0.497192 3.3696 0.497197 1.6848 2.182C-1.07288e-06 3.8668 0 6.57782 0 11.9903V13.0041C0 18.4156 -1.07288e-06 21.1276 1.6848 22.8124C3.3696 24.4972 6.0816 24.4972 11.5075 24.4972ZM12.8788 17.8011C7.46726 17.8011 4.18309 14.0465 4.05544 7.80748H6.79624C6.88166 12.3905 8.96677 14.3355 10.5652 14.732V7.80748H13.1927V11.7617C14.7345 11.5909 16.3473 9.79183 16.8906 7.80748H19.474C19.0602 10.2488 17.3044 12.0478 16.0622 12.7899C17.3044 13.3899 19.3031 14.9605 20.074 17.8011H17.2334C16.6334 15.9022 15.1626 14.4315 13.1927 14.2318V17.8011H12.8788Z" fill="#B58763"/>
</g>
<defs>
<clipPath id="clip0_253_59">
<rect width="24" height="24" fill="white" transform="translate(0 0.497192)"/>
</clipPath>
</defs>
</svg>
